<svg xmlns="http://www.w3.org/2000/svg" width="20" height="26" viewBox="0 0 20 26">
  <title>
    Finger
  </title>
  <g fill="none" fill-rule="nonzero">
    <path fill="#BD83FF" d="M7.176 6.066v9.71c0 .99-1.062 1.623-1.937 1.16-.933-.492-1.94-.924-2.984-1.332-1.2-.47-2.192.388-2.192 1.36 0 .494.254 1.017.865 1.41 1.816 1.17 4.118 1.81 5.014 3.132.554.817 1.718 3.176 2.17 4.092.113.23.347.402.604.402h7.14c.337 0 .623-.276.668-.612l.376-2.845c.014-.1.05-.203.106-.288 1.62-2.47 2.288-4.227 2.288-5.87 0-.353-.03-.7-.09-1.05-.348-2.08-1.82-2.405-2.502-2.442-.21-.01-.407-.118-.522-.295-.72-1.108-1.8-1.036-2.412-.878-.27.07-.554-.026-.717-.25-.612-.838-1.443-.914-2.05-.825-.41.06-.768-.253-.768-.667V6.066c0-2.04-3.06-2.04-3.06 0z"/>
    <path fill="#FFF" d="M4.094 11c.168 0 .336-.057.474-.174.31-.264.35-.73.088-1.042-.764-.908-1.184-2.065-1.184-3.256 0-2.785 2.256-5.05 5.028-5.05 2.773 0 5.028 2.265 5.028 5.05 0 .777-.17 1.522-.507 2.214-.177.367-.026.81.34.988.364.18.805.028.983-.34.436-.895.657-1.858.657-2.862C15 2.928 12.084 0 8.5 0S2 2.928 2 6.528c0 1.54.544 3.035 1.53 4.21.147.173.355.262.564.262z"/>
  </g>
</svg>
