<svg xmlns="http://www.w3.org/2000/svg" viewBox="0 0 19 27"><g fill="#FFFFFF"><path d="M7.026 6.96v9.5c0 .97-1.05 1.59-1.914 1.137-.92-.482-1.916-.905-2.947-1.304C.98 15.833 0 16.673 0 17.623c0 .484.25.996.855 1.38 1.794 1.145 4.07 1.77 4.954 3.064.54.8 1.69 3.107 2.14 4.004.11.23.34.4.592.4H15.6c.335 0 .617-.27.66-.6l.373-2.782c.013-.098.05-.2.104-.282 1.6-2.416 2.26-4.135 2.26-5.743 0-.344-.03-.685-.088-1.025-.35-2.034-1.8-2.353-2.48-2.39-.21-.01-.403-.115-.517-.288-.71-1.085-1.78-1.014-2.384-.86-.265.067-.547-.025-.708-.244-.605-.82-1.425-.895-2.026-.81-.406.06-.758-.245-.758-.65V6.96c-.004-1.995-3.026-1.995-3.026 0z"/><path d="M4.094 11c.168 0 .336-.057.474-.174.31-.264.35-.73.088-1.042-.764-.908-1.184-2.065-1.184-3.256 0-2.785 2.256-5.05 5.028-5.05 2.773 0 5.028 2.265 5.028 5.05 0 .777-.17 1.522-.507 2.214-.17.367-.02.81.34.988.37.18.81.028.99-.34.436-.895.657-1.858.657-2.862C15 2.928 12.087 0 8.5 0S2 2.928 2 6.528c0 1.54.544 3.035 1.53 4.21.147.173.355.262.564.262z"/></g></svg>