<svg width="19" height="19" viewBox="0 0 19 19" xmlns="http://www.w3.org/2000/svg"><title>LinkedIn__x28_alt_x29_</title><path d="M17.597 0H1.404C.628 0 0 .61 0 1.36V17.64C0 18.39.63 19 1.404 19h16.193c.775 0 1.403-.61 1.403-1.362V1.36C19 .61 18.372 0 17.597 0zM5.76 15.904H2.89V7.326h2.87v8.578zm-1.435-9.75h-.02c-.962 0-1.586-.658-1.586-1.483 0-.84.64-1.48 1.623-1.48.982 0 1.586.64 1.605 1.48 0 .826-.623 1.484-1.623 1.484zm11.783 9.75h-2.87v-4.59c0-1.153-.415-1.94-1.453-1.94-.794 0-1.265.53-1.472 1.044-.077.183-.096.44-.096.695v4.79h-2.87s.038-7.773 0-8.577h2.87v1.216c.38-.584 1.062-1.418 2.586-1.418 1.89 0 3.305 1.225 3.305 3.86v4.92zm-5.91-7.3c.012-.02.028-.04.043-.062v.062h-.04z" fill-rule="nonzero" fill="#C2AAFF"/></svg>