<svg width="35" height="48" viewBox="0 0 35 48" version="1.1" xmlns="http://www.w3.org/2000/svg" xmlns:xlink="http://www.w3.org/1999/xlink"><title>Group 5</title><desc>Created with Sketch.</desc><defs><linearGradient x1="62.271%" y1="88.687%" x2="100%" y2="88.687%" id="linearGradient-1"><stop stop-color="#000" stop-opacity="0" offset="0%"/><stop stop-color="#000" stop-opacity=".353" offset="100%"/></linearGradient><polygon id="path-2" points="6.81904762 21.7805671 16 21.7805671 16 29 1.79766059e-13 29 0 0 6.81904762 0"/><linearGradient x1="8.041%" y1="86.389%" x2="36.793%" y2="61.816%" id="linearGradient-3"><stop stop-color="#FF8F6C" stop-opacity="0" offset="0%"/><stop stop-color="#FF8F6C" offset="100%"/></linearGradient></defs><g id="Page-1" stroke="none" stroke-width="1" fill="none" fill-rule="evenodd"><g id="Mobile---Home---Dark-Copy-4" transform="translate(-21.000000, 0.000000)"><g id="Group-5" transform="translate(21.000000, 0.000000)"><g id="Lp"><use fill="#FF558D" xlink:href="#path-2"/><use fill="url(#linearGradient-1)" xlink:href="#path-2"/></g><path d="M26.7771639,10 C29.109895,10 31.063528,10.9103565 32.6381215,12.7310969 C34.2127151,14.5518373 35,16.8247142 35,19.5497958 C35,22.2748775 34.2127151,24.5477544 32.6381215,26.3684948 C31.063528,28.1892351 29.109895,29.0995917 26.7771639,29.0995917 C24.6543786,29.0995917 22.9981643,28.3761295 21.8084715,26.9291835 L21.8084715,49 L21.8084715,49 C21.8084715,50.1045695 20.913041,51 19.8084715,51 L18,51 L18,51 C16.8954305,51 16,50.1045695 16,49 L16,10.5064286 L21.8084715,10.5064286 L21.8084715,12.1704081 C22.9981643,10.7234621 24.6543786,10 26.7771639,10 Z M22.8232044,22.4074999 C23.4996964,23.1309729 24.386121,23.492704 25.4825046,23.492704 C26.5788882,23.492704 27.4653128,23.1309729 28.1418048,22.4074999 C28.8182968,21.6840269 29.1565378,20.7314684 29.1565378,19.5497958 C29.1565378,18.3681233 28.8182968,17.4155648 28.1418048,16.6920918 C27.4653128,15.9686188 26.5788882,15.6068877 25.4825046,15.6068877 C24.386121,15.6068877 23.4996964,15.9686188 22.8232044,16.6920918 C22.1467124,17.4155648 21.8084715,18.3681233 21.8084715,19.5497958 C21.8084715,20.7314684 22.1467124,21.6840269 22.8232044,22.4074999 Z" id="Combined-Shape" fill="url(#linearGradient-3)"/></g></g></g></svg>
