<?xml version="1.0" encoding="UTF-8"?>
<svg width="35px" height="47px" viewBox="0 0 35 47" version="1.1" xmlns="http://www.w3.org/2000/svg" xmlns:xlink="http://www.w3.org/1999/xlink">
    <!-- Generator: Sketch 46.2 (44496) - http://www.bohemiancoding.com/sketch -->
    <title>Group 5 Copy 2</title>
    <desc>Created with Sketch.</desc>
    <defs></defs>
    <g id="Page-1" stroke="none" stroke-width="1" fill="none" fill-rule="evenodd">
        <g id="Mobile---Home---Dark-Copy-4" transform="translate(-66.000000, 0.000000)">
            <g id="Group-5-Copy-2" transform="translate(66.000000, 0.000000)">
                <polygon id="Lp" fill="#FF558D" points="6.81904762 21.7805671 16 21.7805671 16 29 1.79766059e-13 29 0 0 6.81904762 0"></polygon>
                <path d="M26.7771639,10 C29.109895,10 31.063528,10.9103565 32.6381215,12.7310969 C34.2127151,14.5518373 35,16.8247142 35,19.5497958 C35,22.2748775 34.2127151,24.5477544 32.6381215,26.3684948 C31.063528,28.1892351 29.109895,29.0995917 26.7771639,29.0995917 C24.6543786,29.0995917 22.9981643,28.3761295 21.8084715,26.9291835 L21.8084715,47 L16,41.8007812 L16,10.5064286 L21.8084715,10.5064286 L21.8084715,12.1704081 C22.9981643,10.7234621 24.6543786,10 26.7771639,10 Z M22.8232044,22.4074999 C23.4996964,23.1309729 24.386121,23.492704 25.4825046,23.492704 C26.5788882,23.492704 27.4653128,23.1309729 28.1418048,22.4074999 C28.8182968,21.6840269 29.1565378,20.7314684 29.1565378,19.5497958 C29.1565378,18.3681233 28.8182968,17.4155648 28.1418048,16.6920918 C27.4653128,15.9686188 26.5788882,15.6068877 25.4825046,15.6068877 C24.386121,15.6068877 23.4996964,15.9686188 22.8232044,16.6920918 C22.1467124,17.4155648 21.8084715,18.3681233 21.8084715,19.5497958 C21.8084715,20.7314684 22.1467124,21.6840269 22.8232044,22.4074999 Z" id="Combined-Shape" fill="#FF8F6C"></path>
            </g>
        </g>
    </g>
</svg>