<svg xmlns="http://www.w3.org/2000/svg" width="35" height="48" viewBox="0 0 35 48" xmlns:xlink="http://www.w3.org/1999/xlink">
  <defs>
    <linearGradient id="b" x1="62.271%" y1="88.687%" y2="88.687%">
      <stop stop-opacity="0" offset="0%"/>
      <stop stop-opacity=".353" offset="100%"/>
    </linearGradient>
    <path id="a" d="M6.82 21.78H16V29H0V0h6.82z"/>
    <linearGradient id="c" x1="8.041%" x2="36.793%" y1="86.389%" y2="61.816%">
      <stop stop-color="#FF8F6C" stop-opacity="0" offset="0%"/>
      <stop stop-color="#FF8F6C" offset="100%"/>
    </linearGradient>
  </defs>
  <g fill="none" fill-rule="evenodd">
    <use fill="#FF558D" xlink:href="#a"/>
    <use fill="url(#b)" xlink:href="#a"/>
    <path fill="url(#c)" d="M26.777 10c2.333 0 4.287.91 5.86 2.73C34.214 14.553 35 16.826 35 19.55c0 2.725-.787 4.998-2.362 6.818-1.574 1.82-3.528 2.732-5.86 2.732-2.124 0-3.78-.724-4.97-2.17V49c0 1.105-.895 2-2 2H18c-1.105 0-2-.895-2-2V10.506h5.808v1.664c1.19-1.447 2.846-2.17 4.97-2.17zm-3.954 12.407c.677.724 1.563 1.086 2.66 1.086 1.096 0 1.982-.362 2.66-1.086.675-.723 1.014-1.676 1.014-2.857 0-1.182-.34-2.134-1.015-2.858-.677-.723-1.563-1.085-2.66-1.085-1.096 0-1.982.362-2.66 1.085-.675.724-1.014 1.676-1.014 2.858 0 1.18.34 2.134 1.015 2.857z"/>
  </g>
</svg>
