<svg width="21" height="21" viewBox="0 0 21 21" xmlns="http://www.w3.org/2000/svg"><title>sun-2</title><g fill-rule="nonzero" fill="#5A5B75"><path d="M10.5 5.526c-2.743 0-4.974 2.232-4.974 4.974s2.23 4.974 4.974 4.974c2.742 0 4.974-2.23 4.974-4.974 0-2.743-2.232-4.974-4.974-4.974zM10.308 3.627c-.556 0-1.007-.45-1.007-1.007V1.008C9.3.45 9.753 0 10.31 0c.557 0 1.008.45 1.008 1.008V2.62c0 .556-.452 1.007-1.008 1.007zM10.308 16.99c-.556 0-1.007.45-1.007 1.007v1.612c0 .555.452 1.007 1.008 1.007.557 0 1.008-.452 1.008-1.008v-1.613c0-.556-.452-1.008-1.008-1.008zM15.032 5.584c-.393-.394-.393-1.032 0-1.425l1.14-1.14c.393-.394 1.032-.394 1.425 0 .394.393.394 1.03 0 1.424l-1.14 1.14c-.393.393-1.03.393-1.425 0zM5.584 15.033c-.394-.394-1.032-.394-1.425 0l-1.14 1.14c-.394.393-.395 1.03 0 1.425.393.393 1.03.393 1.424 0l1.14-1.14c.393-.394.393-1.032 0-1.425zM16.99 10.308c0-.556.45-1.007 1.007-1.007h1.612c.555 0 1.007.452 1.007 1.008 0 .557-.452 1.007-1.008 1.007h-1.613c-.556 0-1.008-.45-1.008-1.007zM3.627 10.308c0-.556-.45-1.007-1.008-1.007H1.007C.45 9.3 0 9.753 0 10.31c0 .557.45 1.007 1.008 1.007H2.62c.556 0 1.007-.45 1.007-1.007zM15.032 15.033c.394-.393 1.032-.393 1.425 0l1.14 1.14c.394.393.394 1.03 0 1.425-.393.393-1.03.393-1.425 0l-1.14-1.14c-.393-.394-.393-1.032 0-1.425zM5.584 5.584c.393-.394.393-1.032 0-1.425l-1.14-1.14c-.394-.394-1.03-.394-1.425 0-.395.393-.395 1.03 0 1.424l1.14 1.14c.392.394 1.03.394 1.424 0z"/></g></svg>