<?xml version="1.0" encoding="UTF-8"?>
<svg xmlns="http://www.w3.org/2000/svg" width="60" height="60" viewBox="0 0 60 60">
  <title>
    Group 5
  </title>
  <defs>
    <linearGradient id="a" x1="100%" x2="17.79%" y1="100%" y2="5.171%">
      <stop stop-color="#23A8FA" offset="0%"></stop>
      <stop stop-color="#34DA8B" offset="100%"></stop>
    </linearGradient>
  </defs>
  <g fill="none" fill-rule="evenodd">
    <rect width="60" height="60" fill="url(#a)" rx="12"></rect>
    <g fill="#FFF" fill-rule="nonzero">
      <path d="M25.06 45.973l-.14-.16c-.074-.084-.144-.16-.222-.252-.483-.272-.95-.566-1.41-.87-.128-.085-.253-.17-.378-.256-.46-.317-.908-.643-1.34-.99-.114-.09-.22-.186-.33-.278-.326-.27-.64-.546-.95-.83-.157-.146-.315-.29-.468-.44-.34-.33-.67-.673-.99-1.024-.186-.205-.365-.417-.544-.627-.16-.19-.318-.385-.473-.58-.36-.454-.702-.92-1.028-1.395-.07-.1-.142-.2-.21-.304-.21-.318-.41-.64-.605-.966l-.08-.14c-1.248-2.13-2.168-4.44-2.716-6.86-1.45.158-2.88.457-4.257.893l-.92.29.29.93C11.194 41.417 19.126 48.11 28 49l-2.166-2.194c-.25-.255-.508-.535-.773-.833z"></path>
      <path d="M14.44 29.093c.652 3.29 1.996 6.34 3.903 8.968l.013.02c.225.31.46.613.7.91.04.052.085.103.127.154.645.784 1.345 1.52 2.092 2.213.166.154.333.308.505.458.072.062.147.123.22.185-.086-.153-.163-.31-.246-.464-.074-.137-.148-.273-.218-.41-.136-.265-.266-.53-.392-.8l-.124-.27c-2.818-6.205-2.955-13.43-.147-19.84-1.566-.85-3.225-1.51-4.94-1.964L14.985 18l-.25.953c-.882 3.386-.95 6.823-.315 10.086.005.02.017.033.02.053zM40.5 21.143c.094.24.185.48.27.722.04.112.075.223.112.334 1.364 4.038 1.624 8.31.837 12.396-.006.026-.01.053-.017.08-.07.362-.147.723-.235 1.083l-.01.04c-.144.583-.31 1.16-.497 1.732-.056.174-.108.35-.17.523-.057.166-.122.33-.184.494-.098.26-.196.52-.303.777-.055.133-.114.265-.17.398-.13.297-.266.593-.408.887l-.14.287c-.178.354-.365.705-.56 1.053-.01.015-.016.032-.025.047.073-.062.147-.12.22-.183.173-.153.342-.31.512-.467.743-.688 1.44-1.423 2.082-2.203l.132-.158c.24-.298.473-.6.698-.91l.014-.02c1.906-2.63 3.25-5.678 3.9-8.967.005-.02.017-.033.022-.05.633-3.266.568-6.703-.316-10.09l-.25-.953-.947.252c-1.715.455-3.373 1.115-4.94 1.963.05.116.092.234.14.35.08.192.158.385.233.578z" opacity=".514"></path>
      <path d="M34.85 45.24c.176-.186.356-.382.548-.598l.033-.037c.732-.825 1.392-1.692 1.982-2.593l.068-.105c.56-.867 1.055-1.766 1.484-2.69.048-.1.092-.204.138-.306.154-.345.298-.695.434-1.048.047-.12.098-.243.143-.366.144-.396.273-.795.395-1.198.064-.215.122-.43.18-.645.055-.206.106-.413.155-.62.216-.914.375-1.84.472-2.77l.02-.21c.097-1.032.123-2.07.073-3.104l-.002-.054c-.052-1.024-.177-2.045-.372-3.055-.017-.088-.034-.176-.053-.265-.183-.894-.428-1.78-.725-2.65-.083-.244-.17-.485-.262-.727-.07-.185-.14-.37-.215-.552-.17-.41-.35-.82-.55-1.224-1.108-2.285-2.635-4.426-4.583-6.312L31 11l-3.214 3.11c-2.535 2.454-4.36 5.34-5.475 8.415-.008.024-.016.05-.026.073-1.814 5.062-1.705 10.63.322 15.633.055.136.11.27.166.403.108.253.22.503.337.752.13.274.267.545.41.814.126.24.26.48.397.72.15.263.307.525.47.782.097.155.194.308.296.46.254.382.517.76.797 1.13.04.053.085.103.125.157.268.343.548.682.837 1.014.142.163.284.326.43.486l.14.15c.25.268.507.532.774.79L31 49l3.212-3.11c.22-.212.43-.43.64-.65zM52.08 30.893c-1.374-.435-2.803-.734-4.256-.893-.55 2.424-1.472 4.74-2.725 6.876-.024.04-.046.08-.07.118-.195.33-.398.655-.61.976-.062.095-.13.187-.194.28-.33.485-.676.957-1.042 1.417-.155.195-.31.388-.47.577-.18.21-.36.422-.546.628-.32.352-.65.694-.99 1.027-.152.146-.308.288-.464.43-.312.29-.633.573-.962.845-.107.088-.208.18-.317.267-.436.35-.89.68-1.353.998-.12.082-.238.163-.36.243-.463.307-.933.604-1.42.88l-.01.01c-.157.184-.318.368-.484.55-.22.24-.43.47-.642.683L33 49c8.874-.89 16.806-7.583 19.71-16.887l.29-.93-.92-.29z"></path>
    </g>
  </g>
</svg>
