<?xml version="1.0" encoding="UTF-8"?>
<svg xmlns="http://www.w3.org/2000/svg" width="46" height="46" viewBox="0 0 46 46">
  <title>Group 5</title>
  <defs>
    <linearGradient x1="100%" y1="100%" x2="17.79%" y2="5.171%" id="a">
      <stop stop-color="#23A8FA" offset="0%"></stop>
      <stop stop-color="#34DA8B" offset="100%"></stop>
    </linearGradient>
  </defs>
  <g fill="none" fill-rule="evenodd">
    <rect fill="url(#a)" width="46" height="46" rx="7"></rect>
    <g fill-rule="nonzero" fill="#FFF">
      <path d="M38.8 28.004l-3.42-6.94c-4.383.452-5.87 1.358-6.39 2.037-.074.15-.37.53-.074 1.434.67 2.338 0 3.922-.67 4.828-1.633 2.263-5.35 3.243-11.888 3.243-2.006 0-3.418.453-3.864 1.132-.446.68-.15 1.886 0 2.263h17.61c.67 0 1.264-.377 1.562-.905.37-.528.37-1.283.074-1.81l-1.19-2.49h6.466c.67 0 1.263-.377 1.56-.905.52-.604.52-1.283.223-1.886z" fill-opacity=".476"></path>
      <path d="M25.52 27.126c.075-.15.374-.53.075-1.592-.597-2.124 0-3.64.597-4.55 1.194-1.82 3.582-2.883 7.687-3.49l-1.717-3.564c-.3-.683-.97-1.062-1.717-1.062-.746 0-1.343.38-1.716 1.062l-3.06 6.295-4.852-10.163C20.52 9.38 19.848 9 19.102 9c-.747 0-1.344.38-1.717 1.062L6.19 33.194c-.298.607-.224 1.29.075 1.896.373.53.97.91 1.567.91h1.045c-.224-1.138-.3-2.73.672-4.247 1.193-1.896 3.506-2.882 6.94-2.882 6.717 0 8.583-1.06 9.03-1.744z"></path>
    </g>
  </g>
</svg>
