<?xml version="1.0" encoding="UTF-8"?>
<svg xmlns="http://www.w3.org/2000/svg" width="60" height="60" viewBox="0 0 60 60">
  <title>Group 5</title>
  <g fill="none" fill-rule="evenodd">
    <rect fill="#AB7DDF" width="60" height="60" rx="7"></rect>
    <g fill-rule="nonzero" fill="#FFF">
      <path d="M50.608 36.527l-4.46-9.052c-5.717.59-7.656 1.77-8.334 2.656-.097.198-.485.69-.097 1.87.872 3.05 0 5.117-.872 6.298-2.133 2.952-6.98 4.23-15.508 4.23-2.617 0-4.46.59-5.04 1.477-.582.885-.194 2.46 0 2.952h22.97c.873 0 1.648-.492 2.036-1.18.485-.69.485-1.674.097-2.363l-1.55-3.247h8.432c.872 0 1.647-.492 2.035-1.18.678-.788.678-1.673.29-2.46z" fill-opacity=".476"></path>
      <path d="M33.287 35.382c.098-.198.487-.692.098-2.077-.78-2.77 0-4.75.78-5.936 1.556-2.375 4.67-3.76 10.025-4.55l-2.24-4.65c-.388-.89-1.264-1.386-2.238-1.386-.973 0-1.752.495-2.24 1.385l-3.99 8.21-6.328-13.256c-.39-.89-1.265-1.385-2.24-1.385-.972 0-1.75.494-2.238 1.384L8.074 43.296c-.39.792-.292 1.682.097 2.473.488.692 1.267 1.187 2.046 1.187h1.363c-.294-1.484-.39-3.562.875-5.54 1.557-2.473 4.575-3.76 9.053-3.76 8.762 0 11.195-1.384 11.78-2.275z"></path>
    </g>
  </g>
</svg>
